<svg width="16" height="16" viewBox="0 0 16 16" fill="none" xmlns="http://www.w3.org/2000/svg">
<path d="M6.66671 14L9.33337 11.3333H14.6667V14H6.66671ZM2.66671 12.6666H3.60004L9.35004 6.91665L8.41671 5.98331L2.66671 11.7333V12.6666ZM12.2 5.94998L9.36671 3.14998L10.3 2.21665C10.5556 1.96109 10.8696 1.83331 11.242 1.83331C11.614 1.83331 11.9278 1.96109 12.1834 2.21665L13.1167 3.14998C13.3723 3.40554 13.5056 3.71398 13.5167 4.07531C13.5278 4.4362 13.4056 4.74442 13.15 4.99998L12.2 5.94998ZM11.2334 6.93331L4.16671 14H1.33337V11.1666L8.40004 4.09998L11.2334 6.93331ZM8.88337 6.44998L8.41671 5.98331L9.35004 6.91665L8.88337 6.44998Z" fill="#7B6F72"/>
</svg>
