<svg width="170" height="170" viewBox="0 0 170 170" fill="none" xmlns="http://www.w3.org/2000/svg">
<g filter="url(#filter0_d_3_662)">
<rect x="6" y="6" width="150" height="150" rx="20" fill="white"/>
</g>
<path d="M31.808 30.66V31.776H28.268V34.236H31.028V35.352H28.268V39H26.9V30.66H31.808ZM34.4438 30.12V39H33.0758V30.12H34.4438ZM35.7838 35.664C35.7838 35 35.9198 34.412 36.1918 33.9C36.4718 33.388 36.8478 32.992 37.3198 32.712C37.7998 32.424 38.3278 32.28 38.9038 32.28C39.4238 32.28 39.8758 32.384 40.2598 32.592C40.6518 32.792 40.9638 33.044 41.1958 33.348V32.388H42.5758V39H41.1958V38.016C40.9638 38.328 40.6478 38.588 40.2478 38.796C39.8478 39.004 39.3918 39.108 38.8798 39.108C38.3118 39.108 37.7918 38.964 37.3198 38.676C36.8478 38.38 36.4718 37.972 36.1918 37.452C35.9198 36.924 35.7838 36.328 35.7838 35.664ZM41.1958 35.688C41.1958 35.232 41.0998 34.836 40.9078 34.5C40.7238 34.164 40.4798 33.908 40.1758 33.732C39.8718 33.556 39.5438 33.468 39.1918 33.468C38.8398 33.468 38.5118 33.556 38.2078 33.732C37.9038 33.9 37.6558 34.152 37.4638 34.488C37.2798 34.816 37.1878 35.208 37.1878 35.664C37.1878 36.12 37.2798 36.52 37.4638 36.864C37.6558 37.208 37.9038 37.472 38.2078 37.656C38.5198 37.832 38.8478 37.92 39.1918 37.92C39.5438 37.92 39.8718 37.832 40.1758 37.656C40.4798 37.48 40.7238 37.224 40.9078 36.888C41.0998 36.544 41.1958 36.144 41.1958 35.688ZM45.9687 33.504V37.164C45.9687 37.412 46.0247 37.592 46.1367 37.704C46.2567 37.808 46.4567 37.86 46.7367 37.86H47.5767V39H46.4967C45.8807 39 45.4087 38.856 45.0807 38.568C44.7527 38.28 44.5887 37.812 44.5887 37.164V33.504H43.8087V32.388H44.5887V30.744H45.9687V32.388H47.5767V33.504H45.9687ZM56.4187 34.716C56.8667 34.796 57.2467 35.032 57.5587 35.424C57.8707 35.816 58.0267 36.26 58.0267 36.756C58.0267 37.18 57.9147 37.564 57.6907 37.908C57.4747 38.244 57.1587 38.512 56.7427 38.712C56.3267 38.904 55.8427 39 55.2907 39H51.9547V30.66H55.1347C55.7027 30.66 56.1907 30.756 56.5987 30.948C57.0067 31.14 57.3147 31.4 57.5227 31.728C57.7307 32.048 57.8347 32.408 57.8347 32.808C57.8347 33.288 57.7067 33.688 57.4507 34.008C57.1947 34.328 56.8507 34.564 56.4187 34.716ZM53.3227 34.164H55.0147C55.4627 34.164 55.8107 34.064 56.0587 33.864C56.3147 33.656 56.4427 33.36 56.4427 32.976C56.4427 32.6 56.3147 32.308 56.0587 32.1C55.8107 31.884 55.4627 31.776 55.0147 31.776H53.3227V34.164ZM55.1707 37.884C55.6347 37.884 55.9987 37.772 56.2627 37.548C56.5267 37.324 56.6587 37.012 56.6587 36.612C56.6587 36.204 56.5187 35.88 56.2387 35.64C55.9587 35.4 55.5867 35.28 55.1227 35.28H53.3227V37.884H55.1707ZM65.5733 35.532C65.5733 35.78 65.5573 36.004 65.5253 36.204H60.4733C60.5133 36.732 60.7093 37.156 61.0613 37.476C61.4133 37.796 61.8453 37.956 62.3573 37.956C63.0933 37.956 63.6133 37.648 63.9173 37.032H65.3933C65.1933 37.64 64.8293 38.14 64.3013 38.532C63.7813 38.916 63.1333 39.108 62.3573 39.108C61.7253 39.108 61.1573 38.968 60.6533 38.688C60.1573 38.4 59.7653 38 59.4773 37.488C59.1973 36.968 59.0573 36.368 59.0573 35.688C59.0573 35.008 59.1933 34.412 59.4653 33.9C59.7453 33.38 60.1333 32.98 60.6293 32.7C61.1333 32.42 61.7093 32.28 62.3573 32.28C62.9813 32.28 63.5373 32.416 64.0253 32.688C64.5133 32.96 64.8933 33.344 65.1653 33.84C65.4373 34.328 65.5733 34.892 65.5733 35.532ZM64.1453 35.1C64.1373 34.596 63.9573 34.192 63.6053 33.888C63.2533 33.584 62.8173 33.432 62.2973 33.432C61.8253 33.432 61.4213 33.584 61.0853 33.888C60.7493 34.184 60.5493 34.588 60.4853 35.1H64.1453ZM70.2555 32.28C70.7755 32.28 71.2395 32.388 71.6475 32.604C72.0635 32.82 72.3875 33.14 72.6195 33.564C72.8515 33.988 72.9675 34.5 72.9675 35.1V39H71.6115V35.304C71.6115 34.712 71.4635 34.26 71.1675 33.948C70.8715 33.628 70.4675 33.468 69.9555 33.468C69.4435 33.468 69.0355 33.628 68.7315 33.948C68.4355 34.26 68.2875 34.712 68.2875 35.304V39H66.9195V32.388H68.2875V33.144C68.5115 32.872 68.7955 32.66 69.1395 32.508C69.4915 32.356 69.8635 32.28 70.2555 32.28ZM74.2565 35.688C74.2565 35.008 74.3925 34.412 74.6645 33.9C74.9445 33.38 75.3285 32.98 75.8165 32.7C76.3045 32.42 76.8645 32.28 77.4965 32.28C78.2965 32.28 78.9565 32.472 79.4765 32.856C80.0045 33.232 80.3605 33.772 80.5445 34.476H79.0685C78.9485 34.148 78.7565 33.892 78.4925 33.708C78.2285 33.524 77.8965 33.432 77.4965 33.432C76.9365 33.432 76.4885 33.632 76.1525 34.032C75.8245 34.424 75.6605 34.976 75.6605 35.688C75.6605 36.4 75.8245 36.956 76.1525 37.356C76.4885 37.756 76.9365 37.956 77.4965 37.956C78.2885 37.956 78.8125 37.608 79.0685 36.912H80.5445C80.3525 37.584 79.9925 38.12 79.4645 38.52C78.9365 38.912 78.2805 39.108 77.4965 39.108C76.8645 39.108 76.3045 38.968 75.8165 38.688C75.3285 38.4 74.9445 38 74.6645 37.488C74.3925 36.968 74.2565 36.368 74.2565 35.688ZM85.3278 32.28C85.8318 32.28 86.2798 32.388 86.6718 32.604C87.0718 32.82 87.3838 33.14 87.6078 33.564C87.8398 33.988 87.9558 34.5 87.9558 35.1V39H86.5998V35.304C86.5998 34.712 86.4518 34.26 86.1558 33.948C85.8598 33.628 85.4558 33.468 84.9438 33.468C84.4318 33.468 84.0238 33.628 83.7198 33.948C83.4238 34.26 83.2758 34.712 83.2758 35.304V39H81.9078V30.12H83.2758V33.156C83.5078 32.876 83.7998 32.66 84.1518 32.508C84.5118 32.356 84.9038 32.28 85.3278 32.28ZM98.65 33.144C98.65 33.568 98.55 33.968 98.35 34.344C98.15 34.72 97.83 35.028 97.39 35.268C96.95 35.5 96.386 35.616 95.698 35.616H94.186V39H92.818V30.66H95.698C96.338 30.66 96.878 30.772 97.318 30.996C97.766 31.212 98.098 31.508 98.314 31.884C98.538 32.26 98.65 32.68 98.65 33.144ZM95.698 34.5C96.218 34.5 96.606 34.384 96.862 34.152C97.118 33.912 97.246 33.576 97.246 33.144C97.246 32.232 96.73 31.776 95.698 31.776H94.186V34.5H95.698ZM101.323 33.348C101.523 33.012 101.787 32.752 102.115 32.568C102.451 32.376 102.847 32.28 103.303 32.28V33.696H102.955C102.419 33.696 102.011 33.832 101.731 34.104C101.459 34.376 101.323 34.848 101.323 35.52V39H99.9547V32.388H101.323V33.348ZM110.62 35.532C110.62 35.78 110.604 36.004 110.572 36.204H105.52C105.56 36.732 105.756 37.156 106.108 37.476C106.46 37.796 106.892 37.956 107.404 37.956C108.14 37.956 108.66 37.648 108.964 37.032H110.44C110.24 37.64 109.876 38.14 109.348 38.532C108.828 38.916 108.18 39.108 107.404 39.108C106.772 39.108 106.204 38.968 105.7 38.688C105.204 38.4 104.812 38 104.524 37.488C104.244 36.968 104.104 36.368 104.104 35.688C104.104 35.008 104.24 34.412 104.512 33.9C104.792 33.38 105.18 32.98 105.676 32.7C106.18 32.42 106.756 32.28 107.404 32.28C108.028 32.28 108.584 32.416 109.072 32.688C109.56 32.96 109.94 33.344 110.212 33.84C110.484 34.328 110.62 34.892 110.62 35.532ZM109.192 35.1C109.184 34.596 109.004 34.192 108.652 33.888C108.3 33.584 107.864 33.432 107.344 33.432C106.872 33.432 106.468 33.584 106.132 33.888C105.796 34.184 105.596 34.588 105.532 35.1H109.192ZM114.366 39.108C113.846 39.108 113.378 39.016 112.962 38.832C112.554 38.64 112.23 38.384 111.99 38.064C111.75 37.736 111.622 37.372 111.606 36.972H113.022C113.046 37.252 113.178 37.488 113.418 37.68C113.666 37.864 113.974 37.956 114.342 37.956C114.726 37.956 115.022 37.884 115.23 37.74C115.446 37.588 115.554 37.396 115.554 37.164C115.554 36.916 115.434 36.732 115.194 36.612C114.962 36.492 114.59 36.36 114.078 36.216C113.582 36.08 113.178 35.948 112.866 35.82C112.554 35.692 112.282 35.496 112.05 35.232C111.826 34.968 111.714 34.62 111.714 34.188C111.714 33.836 111.818 33.516 112.026 33.228C112.234 32.932 112.53 32.7 112.914 32.532C113.306 32.364 113.754 32.28 114.258 32.28C115.01 32.28 115.614 32.472 116.07 32.856C116.534 33.232 116.782 33.748 116.814 34.404H115.446C115.422 34.108 115.302 33.872 115.086 33.696C114.87 33.52 114.578 33.432 114.21 33.432C113.85 33.432 113.574 33.5 113.382 33.636C113.19 33.772 113.094 33.952 113.094 34.176C113.094 34.352 113.158 34.5 113.286 34.62C113.414 34.74 113.57 34.836 113.754 34.908C113.938 34.972 114.21 35.056 114.57 35.16C115.05 35.288 115.442 35.42 115.746 35.556C116.058 35.684 116.326 35.876 116.55 36.132C116.774 36.388 116.89 36.728 116.898 37.152C116.898 37.528 116.794 37.864 116.586 38.16C116.378 38.456 116.082 38.688 115.698 38.856C115.322 39.024 114.878 39.108 114.366 39.108ZM120.777 39.108C120.257 39.108 119.789 39.016 119.373 38.832C118.965 38.64 118.641 38.384 118.401 38.064C118.161 37.736 118.033 37.372 118.017 36.972H119.433C119.457 37.252 119.589 37.488 119.829 37.68C120.077 37.864 120.385 37.956 120.753 37.956C121.137 37.956 121.433 37.884 121.641 37.74C121.857 37.588 121.965 37.396 121.965 37.164C121.965 36.916 121.845 36.732 121.605 36.612C121.373 36.492 121.001 36.36 120.489 36.216C119.993 36.08 119.589 35.948 119.277 35.82C118.965 35.692 118.693 35.496 118.461 35.232C118.237 34.968 118.125 34.62 118.125 34.188C118.125 33.836 118.229 33.516 118.437 33.228C118.645 32.932 118.941 32.7 119.325 32.532C119.717 32.364 120.165 32.28 120.669 32.28C121.421 32.28 122.025 32.472 122.481 32.856C122.945 33.232 123.193 33.748 123.225 34.404H121.857C121.833 34.108 121.713 33.872 121.497 33.696C121.281 33.52 120.989 33.432 120.621 33.432C120.261 33.432 119.985 33.5 119.793 33.636C119.601 33.772 119.505 33.952 119.505 34.176C119.505 34.352 119.569 34.5 119.697 34.62C119.825 34.74 119.981 34.836 120.165 34.908C120.349 34.972 120.621 35.056 120.981 35.16C121.461 35.288 121.853 35.42 122.157 35.556C122.469 35.684 122.737 35.876 122.961 36.132C123.185 36.388 123.301 36.728 123.309 37.152C123.309 37.528 123.205 37.864 122.997 38.16C122.789 38.456 122.493 38.688 122.109 38.856C121.733 39.024 121.289 39.108 120.777 39.108Z" fill="#1D1617"/>
<mask id="mask0_3_662" style="mask-type:alpha" maskUnits="userSpaceOnUse" x="26" y="75" width="110" height="78">
<rect x="26" y="75" width="110" height="78" rx="12" fill="#C4C4C4"/>
</mask>
<g mask="url(#mask0_3_662)">
<path opacity="0.3" d="M6 128C11.2864 113.027 24.2706 103.84 44.8636 100.5C68.1306 96.7267 78.9378 125.574 100.727 118.5C116.741 113.301 112.965 100.103 125.318 91C135.689 83.3574 142.751 79.6747 156 75" stroke="url(#paint0_linear_3_662)"/>
<path opacity="0.3" d="M6 140C11.2864 125.027 24.2706 115.84 44.8636 112.5C68.1306 108.727 78.9377 137.574 100.727 130.5C116.741 125.301 112.965 112.103 125.318 103C135.689 95.3574 142.751 91.6747 156 87" stroke="url(#paint1_linear_3_662)"/>
<path opacity="0.3" d="M6 136C11.2864 121.027 24.2706 111.84 44.8636 108.5C68.1306 104.727 78.9378 133.574 100.727 126.5C116.741 121.301 112.965 108.103 125.318 99C135.689 91.3574 142.751 87.6747 156 83" stroke="url(#paint2_linear_3_662)"/>
<path opacity="0.3" d="M6 132C11.2864 117.027 24.2706 107.84 44.8636 104.5C68.1306 100.727 78.9378 129.574 100.727 122.5C116.741 117.301 112.965 104.103 125.318 95C135.689 87.3574 142.751 83.6747 156 79" stroke="url(#paint3_linear_3_662)"/>
<path opacity="0.8" d="M22 94C27.0397 108.973 39.418 118.16 59.05 121.5C81.2312 125.273 91.534 96.4264 112.307 103.5C127.573 108.699 123.974 121.897 135.75 131C145.637 138.643 152.369 142.325 165 147" stroke="url(#paint4_linear_3_662)" stroke-width="1.2"/>
<path opacity="0.8" d="M22 82C27.0397 96.9727 39.418 106.16 59.05 109.5C81.2312 113.273 91.534 84.4264 112.307 91.5C127.573 96.6985 123.974 109.897 135.75 119C145.637 126.643 152.369 130.325 165 135" stroke="url(#paint5_linear_3_662)" stroke-width="1.2"/>
<path opacity="0.8" d="M22 86C27.0397 100.973 39.418 110.16 59.05 113.5C81.2312 117.273 91.534 88.4264 112.307 95.5C127.573 100.699 123.974 113.897 135.75 123C145.637 130.643 152.369 134.325 165 139" stroke="url(#paint6_linear_3_662)" stroke-width="1.2"/>
<path opacity="0.8" d="M22 90C27.0397 104.973 39.418 114.16 59.05 117.5C81.2312 121.273 91.534 92.4264 112.307 99.5C127.573 104.699 123.974 117.897 135.75 127C145.637 134.643 152.369 138.325 165 143" stroke="url(#paint7_linear_3_662)" stroke-width="1.2"/>
</g>
<defs>
<filter id="filter0_d_3_662" x="0" y="0" width="170" height="170" filterUnits="userSpaceOnUse" color-interpolation-filters="sRGB">
<feFlood flood-opacity="0" result="BackgroundImageFix"/>
<feColorMatrix in="SourceAlpha" type="matrix" values="0 0 0 0 0 0 0 0 0 0 0 0 0 0 0 0 0 0 127 0" result="hardAlpha"/>
<feOffset dx="4" dy="4"/>
<feGaussianBlur stdDeviation="5"/>
<feColorMatrix type="matrix" values="0 0 0 0 0.113725 0 0 0 0 0.0862745 0 0 0 0 0.0901961 0 0 0 0.07 0"/>
<feBlend mode="normal" in2="BackgroundImageFix" result="effect1_dropShadow_3_662"/>
<feBlend mode="normal" in="SourceGraphic" in2="effect1_dropShadow_3_662" result="shape"/>
</filter>
<linearGradient id="paint0_linear_3_662" x1="156" y1="128" x2="-35.9116" y2="85.9709" gradientUnits="userSpaceOnUse">
<stop stop-color="#C58BF2"/>
<stop offset="1" stop-color="#EEA4CE"/>
</linearGradient>
<linearGradient id="paint1_linear_3_662" x1="156" y1="140" x2="-35.9116" y2="97.9709" gradientUnits="userSpaceOnUse">
<stop stop-color="#C58BF2"/>
<stop offset="1" stop-color="#EEA4CE"/>
</linearGradient>
<linearGradient id="paint2_linear_3_662" x1="156" y1="136" x2="-35.9116" y2="93.9709" gradientUnits="userSpaceOnUse">
<stop stop-color="#C58BF2"/>
<stop offset="1" stop-color="#EEA4CE"/>
</linearGradient>
<linearGradient id="paint3_linear_3_662" x1="156" y1="132" x2="-35.9116" y2="89.9709" gradientUnits="userSpaceOnUse">
<stop stop-color="#C58BF2"/>
<stop offset="1" stop-color="#EEA4CE"/>
</linearGradient>
<linearGradient id="paint4_linear_3_662" x1="165" y1="94" x2="-18.7222" y2="132.358" gradientUnits="userSpaceOnUse">
<stop stop-color="#92A3FD"/>
<stop offset="1" stop-color="#9DCEFF"/>
</linearGradient>
<linearGradient id="paint5_linear_3_662" x1="165" y1="82" x2="-18.7222" y2="120.358" gradientUnits="userSpaceOnUse">
<stop stop-color="#92A3FD"/>
<stop offset="1" stop-color="#9DCEFF"/>
</linearGradient>
<linearGradient id="paint6_linear_3_662" x1="165" y1="86" x2="-18.7222" y2="124.358" gradientUnits="userSpaceOnUse">
<stop stop-color="#92A3FD"/>
<stop offset="1" stop-color="#9DCEFF"/>
</linearGradient>
<linearGradient id="paint7_linear_3_662" x1="165" y1="90" x2="-18.7222" y2="128.358" gradientUnits="userSpaceOnUse">
<stop stop-color="#92A3FD"/>
<stop offset="1" stop-color="#9DCEFF"/>
</linearGradient>
</defs>
</svg>
