<svg width="150" height="150" viewBox="0 0 150 150" fill="none" xmlns="http://www.w3.org/2000/svg">
<g id="InclinedBenchPress" filter="url(#filter0_d_2_639)">
<g id="Sleep-Status-Bg">
<g id="Rectangle 5662" filter="url(#filter1_d_2_639)">
<rect width="150" height="150" rx="20" fill="white"/>
</g>
</g>
<g id="Sleep-Text">
<path id="Sleep" d="M22.268 24.66V33H20.9V24.66H22.268ZM27.4001 26.28C27.9201 26.28 28.3841 26.388 28.7921 26.604C29.2081 26.82 29.5321 27.14 29.7641 27.564C29.9961 27.988 30.1121 28.5 30.1121 29.1V33H28.7561V29.304C28.7561 28.712 28.6081 28.26 28.3121 27.948C28.0161 27.628 27.6121 27.468 27.1001 27.468C26.5881 27.468 26.1801 27.628 25.8761 27.948C25.5801 28.26 25.4321 28.712 25.4321 29.304V33H24.0641V26.388H25.4321V27.144C25.6561 26.872 25.9401 26.66 26.2841 26.508C26.6361 26.356 27.0081 26.28 27.4001 26.28ZM31.401 29.688C31.401 29.008 31.537 28.412 31.809 27.9C32.089 27.38 32.473 26.98 32.961 26.7C33.449 26.42 34.009 26.28 34.641 26.28C35.441 26.28 36.101 26.472 36.621 26.856C37.149 27.232 37.505 27.772 37.689 28.476H36.213C36.093 28.148 35.901 27.892 35.637 27.708C35.373 27.524 35.041 27.432 34.641 27.432C34.081 27.432 33.633 27.632 33.297 28.032C32.969 28.424 32.805 28.976 32.805 29.688C32.805 30.4 32.969 30.956 33.297 31.356C33.633 31.756 34.081 31.956 34.641 31.956C35.433 31.956 35.957 31.608 36.213 30.912H37.689C37.497 31.584 37.137 32.12 36.609 32.52C36.081 32.912 35.425 33.108 34.641 33.108C34.009 33.108 33.449 32.968 32.961 32.688C32.473 32.4 32.089 32 31.809 31.488C31.537 30.968 31.401 30.368 31.401 29.688ZM40.4203 24.12V33H39.0523V24.12H40.4203ZM42.9124 25.512C42.6644 25.512 42.4564 25.428 42.2884 25.26C42.1204 25.092 42.0364 24.884 42.0364 24.636C42.0364 24.388 42.1204 24.18 42.2884 24.012C42.4564 23.844 42.6644 23.76 42.9124 23.76C43.1524 23.76 43.3564 23.844 43.5244 24.012C43.6924 24.18 43.7764 24.388 43.7764 24.636C43.7764 24.884 43.6924 25.092 43.5244 25.26C43.3564 25.428 43.1524 25.512 42.9124 25.512ZM43.5844 26.388V33H42.2164V26.388H43.5844ZM48.7165 26.28C49.2365 26.28 49.7005 26.388 50.1085 26.604C50.5245 26.82 50.8485 27.14 51.0805 27.564C51.3125 27.988 51.4285 28.5 51.4285 29.1V33H50.0725V29.304C50.0725 28.712 49.9245 28.26 49.6285 27.948C49.3325 27.628 48.9285 27.468 48.4165 27.468C47.9045 27.468 47.4965 27.628 47.1925 27.948C46.8965 28.26 46.7485 28.712 46.7485 29.304V33H45.3805V26.388H46.7485V27.144C46.9725 26.872 47.2565 26.66 47.6005 26.508C47.9525 26.356 48.3245 26.28 48.7165 26.28ZM59.2334 29.532C59.2334 29.78 59.2174 30.004 59.1854 30.204H54.1334C54.1734 30.732 54.3694 31.156 54.7214 31.476C55.0734 31.796 55.5054 31.956 56.0174 31.956C56.7534 31.956 57.2734 31.648 57.5774 31.032H59.0534C58.8534 31.64 58.4894 32.14 57.9614 32.532C57.4414 32.916 56.7934 33.108 56.0174 33.108C55.3854 33.108 54.8174 32.968 54.3134 32.688C53.8174 32.4 53.4254 32 53.1374 31.488C52.8574 30.968 52.7174 30.368 52.7174 29.688C52.7174 29.008 52.8534 28.412 53.1254 27.9C53.4054 27.38 53.7934 26.98 54.2894 26.7C54.7934 26.42 55.3694 26.28 56.0174 26.28C56.6414 26.28 57.1974 26.416 57.6854 26.688C58.1734 26.96 58.5534 27.344 58.8254 27.84C59.0974 28.328 59.2334 28.892 59.2334 29.532ZM57.8054 29.1C57.7974 28.596 57.6174 28.192 57.2654 27.888C56.9134 27.584 56.4774 27.432 55.9574 27.432C55.4854 27.432 55.0814 27.584 54.7454 27.888C54.4094 28.184 54.2094 28.588 54.1454 29.1H57.8054ZM60.1237 29.664C60.1237 29 60.2597 28.412 60.5317 27.9C60.8117 27.388 61.1877 26.992 61.6597 26.712C62.1397 26.424 62.6717 26.28 63.2557 26.28C63.6877 26.28 64.1117 26.376 64.5277 26.568C64.9517 26.752 65.2877 27 65.5357 27.312V24.12H66.9157V33H65.5357V32.004C65.3117 32.324 64.9997 32.588 64.5997 32.796C64.2077 33.004 63.7557 33.108 63.2437 33.108C62.6677 33.108 62.1397 32.964 61.6597 32.676C61.1877 32.38 60.8117 31.972 60.5317 31.452C60.2597 30.924 60.1237 30.328 60.1237 29.664ZM65.5357 29.688C65.5357 29.232 65.4397 28.836 65.2477 28.5C65.0637 28.164 64.8197 27.908 64.5157 27.732C64.2117 27.556 63.8837 27.468 63.5317 27.468C63.1797 27.468 62.8517 27.556 62.5477 27.732C62.2437 27.9 61.9957 28.152 61.8037 28.488C61.6197 28.816 61.5277 29.208 61.5277 29.664C61.5277 30.12 61.6197 30.52 61.8037 30.864C61.9957 31.208 62.2437 31.472 62.5477 31.656C62.8597 31.832 63.1877 31.92 63.5317 31.92C63.8837 31.92 64.2117 31.832 64.5157 31.656C64.8197 31.48 65.0637 31.224 65.2477 30.888C65.4397 30.544 65.5357 30.144 65.5357 29.688ZM76.2937 28.716C76.7417 28.796 77.1217 29.032 77.4337 29.424C77.7457 29.816 77.9017 30.26 77.9017 30.756C77.9017 31.18 77.7897 31.564 77.5657 31.908C77.3497 32.244 77.0337 32.512 76.6177 32.712C76.2017 32.904 75.7177 33 75.1657 33H71.8297V24.66H75.0097C75.5777 24.66 76.0657 24.756 76.4737 24.948C76.8817 25.14 77.1897 25.4 77.3977 25.728C77.6057 26.048 77.7097 26.408 77.7097 26.808C77.7097 27.288 77.5817 27.688 77.3257 28.008C77.0697 28.328 76.7257 28.564 76.2937 28.716ZM73.1977 28.164H74.8897C75.3377 28.164 75.6857 28.064 75.9337 27.864C76.1897 27.656 76.3177 27.36 76.3177 26.976C76.3177 26.6 76.1897 26.308 75.9337 26.1C75.6857 25.884 75.3377 25.776 74.8897 25.776H73.1977V28.164ZM75.0457 31.884C75.5097 31.884 75.8737 31.772 76.1377 31.548C76.4017 31.324 76.5337 31.012 76.5337 30.612C76.5337 30.204 76.3937 29.88 76.1137 29.64C75.8337 29.4 75.4617 29.28 74.9977 29.28H73.1977V31.884H75.0457ZM85.4483 29.532C85.4483 29.78 85.4323 30.004 85.4003 30.204H80.3483C80.3883 30.732 80.5843 31.156 80.9363 31.476C81.2883 31.796 81.7203 31.956 82.2323 31.956C82.9683 31.956 83.4883 31.648 83.7923 31.032H85.2683C85.0683 31.64 84.7043 32.14 84.1763 32.532C83.6563 32.916 83.0083 33.108 82.2323 33.108C81.6003 33.108 81.0323 32.968 80.5283 32.688C80.0323 32.4 79.6403 32 79.3523 31.488C79.0723 30.968 78.9323 30.368 78.9323 29.688C78.9323 29.008 79.0683 28.412 79.3403 27.9C79.6203 27.38 80.0083 26.98 80.5043 26.7C81.0083 26.42 81.5843 26.28 82.2323 26.28C82.8563 26.28 83.4123 26.416 83.9003 26.688C84.3883 26.96 84.7683 27.344 85.0403 27.84C85.3123 28.328 85.4483 28.892 85.4483 29.532ZM84.0203 29.1C84.0123 28.596 83.8323 28.192 83.4803 27.888C83.1283 27.584 82.6923 27.432 82.1723 27.432C81.7003 27.432 81.2963 27.584 80.9603 27.888C80.6243 28.184 80.4243 28.588 80.3603 29.1H84.0203ZM90.1305 26.28C90.6505 26.28 91.1145 26.388 91.5225 26.604C91.9385 26.82 92.2625 27.14 92.4945 27.564C92.7265 27.988 92.8425 28.5 92.8425 29.1V33H91.4865V29.304C91.4865 28.712 91.3385 28.26 91.0425 27.948C90.7465 27.628 90.3425 27.468 89.8305 27.468C89.3185 27.468 88.9105 27.628 88.6065 27.948C88.3105 28.26 88.1625 28.712 88.1625 29.304V33H86.7945V26.388H88.1625V27.144C88.3865 26.872 88.6705 26.66 89.0145 26.508C89.3665 26.356 89.7385 26.28 90.1305 26.28ZM94.1315 29.688C94.1315 29.008 94.2675 28.412 94.5395 27.9C94.8195 27.38 95.2035 26.98 95.6915 26.7C96.1795 26.42 96.7395 26.28 97.3715 26.28C98.1715 26.28 98.8315 26.472 99.3515 26.856C99.8795 27.232 100.236 27.772 100.42 28.476H98.9435C98.8235 28.148 98.6315 27.892 98.3675 27.708C98.1035 27.524 97.7715 27.432 97.3715 27.432C96.8115 27.432 96.3635 27.632 96.0275 28.032C95.6995 28.424 95.5355 28.976 95.5355 29.688C95.5355 30.4 95.6995 30.956 96.0275 31.356C96.3635 31.756 96.8115 31.956 97.3715 31.956C98.1635 31.956 98.6875 31.608 98.9435 30.912H100.42C100.228 31.584 99.8675 32.12 99.3395 32.52C98.8115 32.912 98.1555 33.108 97.3715 33.108C96.7395 33.108 96.1795 32.968 95.6915 32.688C95.2035 32.4 94.8195 32 94.5395 31.488C94.2675 30.968 94.1315 30.368 94.1315 29.688ZM105.203 26.28C105.707 26.28 106.155 26.388 106.547 26.604C106.947 26.82 107.259 27.14 107.483 27.564C107.715 27.988 107.831 28.5 107.831 29.1V33H106.475V29.304C106.475 28.712 106.327 28.26 106.031 27.948C105.735 27.628 105.331 27.468 104.819 27.468C104.307 27.468 103.899 27.628 103.595 27.948C103.299 28.26 103.151 28.712 103.151 29.304V33H101.783V24.12H103.151V27.156C103.383 26.876 103.675 26.66 104.027 26.508C104.387 26.356 104.779 26.28 105.203 26.28ZM26.732 45.144C26.732 45.568 26.632 45.968 26.432 46.344C26.232 46.72 25.912 47.028 25.472 47.268C25.032 47.5 24.468 47.616 23.78 47.616H22.268V51H20.9V42.66H23.78C24.42 42.66 24.96 42.772 25.4 42.996C25.848 43.212 26.18 43.508 26.396 43.884C26.62 44.26 26.732 44.68 26.732 45.144ZM23.78 46.5C24.3 46.5 24.688 46.384 24.944 46.152C25.2 45.912 25.328 45.576 25.328 45.144C25.328 44.232 24.812 43.776 23.78 43.776H22.268V46.5H23.78ZM29.4047 45.348C29.6047 45.012 29.8687 44.752 30.1967 44.568C30.5327 44.376 30.9287 44.28 31.3847 44.28V45.696H31.0367C30.5007 45.696 30.0927 45.832 29.8127 46.104C29.5407 46.376 29.4047 46.848 29.4047 47.52V51H28.0367V44.388H29.4047V45.348ZM38.7022 47.532C38.7022 47.78 38.6862 48.004 38.6542 48.204H33.6022C33.6422 48.732 33.8382 49.156 34.1902 49.476C34.5422 49.796 34.9742 49.956 35.4862 49.956C36.2222 49.956 36.7422 49.648 37.0462 49.032H38.5222C38.3222 49.64 37.9582 50.14 37.4302 50.532C36.9102 50.916 36.2622 51.108 35.4862 51.108C34.8542 51.108 34.2862 50.968 33.7822 50.688C33.2862 50.4 32.8942 50 32.6062 49.488C32.3262 48.968 32.1862 48.368 32.1862 47.688C32.1862 47.008 32.3222 46.412 32.5942 45.9C32.8742 45.38 33.2622 44.98 33.7582 44.7C34.2622 44.42 34.8382 44.28 35.4862 44.28C36.1102 44.28 36.6662 44.416 37.1542 44.688C37.6422 44.96 38.0222 45.344 38.2942 45.84C38.5662 46.328 38.7022 46.892 38.7022 47.532ZM37.2742 47.1C37.2662 46.596 37.0862 46.192 36.7342 45.888C36.3822 45.584 35.9462 45.432 35.4262 45.432C34.9542 45.432 34.5502 45.584 34.2142 45.888C33.8782 46.184 33.6782 46.588 33.6142 47.1H37.2742ZM42.4484 51.108C41.9284 51.108 41.4604 51.016 41.0444 50.832C40.6364 50.64 40.3124 50.384 40.0724 50.064C39.8324 49.736 39.7044 49.372 39.6884 48.972H41.1044C41.1284 49.252 41.2604 49.488 41.5004 49.68C41.7484 49.864 42.0564 49.956 42.4244 49.956C42.8084 49.956 43.1044 49.884 43.3124 49.74C43.5284 49.588 43.6364 49.396 43.6364 49.164C43.6364 48.916 43.5164 48.732 43.2764 48.612C43.0444 48.492 42.6724 48.36 42.1604 48.216C41.6644 48.08 41.2604 47.948 40.9484 47.82C40.6364 47.692 40.3644 47.496 40.1324 47.232C39.9084 46.968 39.7964 46.62 39.7964 46.188C39.7964 45.836 39.9004 45.516 40.1084 45.228C40.3164 44.932 40.6124 44.7 40.9964 44.532C41.3884 44.364 41.8364 44.28 42.3404 44.28C43.0924 44.28 43.6964 44.472 44.1524 44.856C44.6164 45.232 44.8644 45.748 44.8964 46.404H43.5284C43.5044 46.108 43.3844 45.872 43.1684 45.696C42.9524 45.52 42.6604 45.432 42.2924 45.432C41.9324 45.432 41.6564 45.5 41.4644 45.636C41.2724 45.772 41.1764 45.952 41.1764 46.176C41.1764 46.352 41.2404 46.5 41.3684 46.62C41.4964 46.74 41.6524 46.836 41.8364 46.908C42.0204 46.972 42.2924 47.056 42.6524 47.16C43.1324 47.288 43.5244 47.42 43.8284 47.556C44.1404 47.684 44.4084 47.876 44.6324 48.132C44.8564 48.388 44.9724 48.728 44.9804 49.152C44.9804 49.528 44.8764 49.864 44.6684 50.16C44.4604 50.456 44.1644 50.688 43.7804 50.856C43.4044 51.024 42.9604 51.108 42.4484 51.108ZM48.8586 51.108C48.3386 51.108 47.8706 51.016 47.4546 50.832C47.0466 50.64 46.7226 50.384 46.4826 50.064C46.2426 49.736 46.1146 49.372 46.0986 48.972H47.5146C47.5386 49.252 47.6706 49.488 47.9106 49.68C48.1586 49.864 48.4666 49.956 48.8346 49.956C49.2186 49.956 49.5146 49.884 49.7226 49.74C49.9386 49.588 50.0466 49.396 50.0466 49.164C50.0466 48.916 49.9266 48.732 49.6866 48.612C49.4546 48.492 49.0826 48.36 48.5706 48.216C48.0746 48.08 47.6706 47.948 47.3586 47.82C47.0466 47.692 46.7746 47.496 46.5426 47.232C46.3186 46.968 46.2066 46.62 46.2066 46.188C46.2066 45.836 46.3106 45.516 46.5186 45.228C46.7266 44.932 47.0226 44.7 47.4066 44.532C47.7986 44.364 48.2466 44.28 48.7506 44.28C49.5026 44.28 50.1066 44.472 50.5626 44.856C51.0266 45.232 51.2746 45.748 51.3066 46.404H49.9386C49.9146 46.108 49.7946 45.872 49.5786 45.696C49.3626 45.52 49.0706 45.432 48.7026 45.432C48.3426 45.432 48.0666 45.5 47.8746 45.636C47.6826 45.772 47.5866 45.952 47.5866 46.176C47.5866 46.352 47.6506 46.5 47.7786 46.62C47.9066 46.74 48.0626 46.836 48.2466 46.908C48.4306 46.972 48.7026 47.056 49.0626 47.16C49.5426 47.288 49.9346 47.42 50.2386 47.556C50.5506 47.684 50.8186 47.876 51.0426 48.132C51.2666 48.388 51.3826 48.728 51.3906 49.152C51.3906 49.528 51.2866 49.864 51.0786 50.16C50.8706 50.456 50.5746 50.688 50.1906 50.856C49.8146 51.024 49.3706 51.108 48.8586 51.108Z" fill="#1D1617"/>
</g>
<g id="Sleep-Graph">
<mask id="mask0_2_639" style="mask-type:alpha" maskUnits="userSpaceOnUse" x="20" y="69" width="110" height="78">
<rect id="bg" x="20" y="69" width="110" height="78" rx="12" fill="#C4C4C4"/>
</mask>
<g mask="url(#mask0_2_639)">
<g id="Purple-Graph">
<path id="Vector 116" opacity="0.3" d="M0 122C5.28637 107.027 18.2706 97.8396 38.8636 94.5C62.1306 90.7267 72.9378 119.574 94.7273 112.5C110.741 107.301 106.965 94.1032 119.318 85C129.689 77.3574 136.751 73.6747 150 69" stroke="url(#paint0_linear_2_639)"/>
<path id="Vector 119" opacity="0.3" d="M0 134C5.28637 119.027 18.2706 109.84 38.8636 106.5C62.1306 102.727 72.9377 131.574 94.7273 124.5C110.741 119.301 106.965 106.103 119.318 97C129.689 89.3574 136.751 85.6747 150 81" stroke="url(#paint1_linear_2_639)"/>
<path id="Vector 118" opacity="0.3" d="M0 130C5.28637 115.027 18.2706 105.84 38.8636 102.5C62.1306 98.7267 72.9378 127.574 94.7273 120.5C110.741 115.301 106.965 102.103 119.318 93C129.689 85.3574 136.751 81.6747 150 77" stroke="url(#paint2_linear_2_639)"/>
<path id="Vector 117" opacity="0.3" d="M0 126C5.28637 111.027 18.2706 101.84 38.8636 98.5C62.1306 94.7267 72.9378 123.574 94.7273 116.5C110.741 111.301 106.965 98.1032 119.318 89C129.689 81.3574 136.751 77.6747 150 73" stroke="url(#paint3_linear_2_639)"/>
</g>
<g id="Blue-Graph">
<path id="Vector 116_2" opacity="0.8" d="M16 88C21.0397 102.973 33.418 112.16 53.05 115.5C75.2312 119.273 85.534 90.4264 106.307 97.5C121.573 102.699 117.974 115.897 129.75 125C139.637 132.643 146.369 136.325 159 141" stroke="url(#paint4_linear_2_639)" stroke-width="1.2"/>
<path id="Vector 119_2" opacity="0.8" d="M16 76C21.0397 90.9727 33.418 100.16 53.05 103.5C75.2312 107.273 85.534 78.4264 106.307 85.5C121.573 90.6985 117.974 103.897 129.75 113C139.637 120.643 146.369 124.325 159 129" stroke="url(#paint5_linear_2_639)" stroke-width="1.2"/>
<path id="Vector 118_2" opacity="0.8" d="M16 80C21.0397 94.9727 33.418 104.16 53.05 107.5C75.2312 111.273 85.534 82.4264 106.307 89.5C121.573 94.6985 117.974 107.897 129.75 117C139.637 124.643 146.369 128.325 159 133" stroke="url(#paint6_linear_2_639)" stroke-width="1.2"/>
<path id="Vector 117_2" opacity="0.8" d="M16 84C21.0397 98.9727 33.418 108.16 53.05 111.5C75.2312 115.273 85.534 86.4264 106.307 93.5C121.573 98.6985 117.974 111.897 129.75 121C139.637 128.643 146.369 132.325 159 137" stroke="url(#paint7_linear_2_639)" stroke-width="1.2"/>
</g>
</g>
</g>
</g>
<defs>
<filter id="filter0_d_2_639" x="-4" y="0" width="158" height="158" filterUnits="userSpaceOnUse" color-interpolation-filters="sRGB">
<feFlood flood-opacity="0" result="BackgroundImageFix"/>
<feColorMatrix in="SourceAlpha" type="matrix" values="0 0 0 0 0 0 0 0 0 0 0 0 0 0 0 0 0 0 127 0" result="hardAlpha"/>
<feOffset dy="4"/>
<feGaussianBlur stdDeviation="2"/>
<feComposite in2="hardAlpha" operator="out"/>
<feColorMatrix type="matrix" values="0 0 0 0 0 0 0 0 0 0 0 0 0 0 0 0 0 0 0.25 0"/>
<feBlend mode="normal" in2="BackgroundImageFix" result="effect1_dropShadow_2_639"/>
<feBlend mode="normal" in="SourceGraphic" in2="effect1_dropShadow_2_639" result="shape"/>
</filter>
<filter id="filter1_d_2_639" x="-40" y="-30" width="230" height="230" filterUnits="userSpaceOnUse" color-interpolation-filters="sRGB">
<feFlood flood-opacity="0" result="BackgroundImageFix"/>
<feColorMatrix in="SourceAlpha" type="matrix" values="0 0 0 0 0 0 0 0 0 0 0 0 0 0 0 0 0 0 127 0" result="hardAlpha"/>
<feOffset dy="10"/>
<feGaussianBlur stdDeviation="20"/>
<feColorMatrix type="matrix" values="0 0 0 0 0.113725 0 0 0 0 0.0862745 0 0 0 0 0.0901961 0 0 0 0.07 0"/>
<feBlend mode="normal" in2="BackgroundImageFix" result="effect1_dropShadow_2_639"/>
<feBlend mode="normal" in="SourceGraphic" in2="effect1_dropShadow_2_639" result="shape"/>
</filter>
<linearGradient id="paint0_linear_2_639" x1="150" y1="122" x2="-41.9116" y2="79.9709" gradientUnits="userSpaceOnUse">
<stop stop-color="#DF845C"/>
<stop offset="1" stop-color="#EEA4CE"/>
</linearGradient>
<linearGradient id="paint1_linear_2_639" x1="150" y1="134" x2="-41.9116" y2="91.9709" gradientUnits="userSpaceOnUse">
<stop stop-color="#DF845C"/>
<stop offset="1" stop-color="#EEA4CE"/>
</linearGradient>
<linearGradient id="paint2_linear_2_639" x1="150" y1="130" x2="-41.9116" y2="87.9709" gradientUnits="userSpaceOnUse">
<stop stop-color="#DF845C"/>
<stop offset="1" stop-color="#EEA4CE"/>
</linearGradient>
<linearGradient id="paint3_linear_2_639" x1="150" y1="126" x2="-41.9116" y2="83.9709" gradientUnits="userSpaceOnUse">
<stop stop-color="#DF845C"/>
<stop offset="1" stop-color="#EEA4CE"/>
</linearGradient>
<linearGradient id="paint4_linear_2_639" x1="159" y1="88" x2="-24.7222" y2="126.358" gradientUnits="userSpaceOnUse">
<stop stop-color="#3B2645"/>
<stop offset="1" stop-color="#9DCEFF"/>
</linearGradient>
<linearGradient id="paint5_linear_2_639" x1="159" y1="76" x2="-24.7222" y2="114.358" gradientUnits="userSpaceOnUse">
<stop stop-color="#3B2645"/>
<stop offset="1" stop-color="#9DCEFF"/>
</linearGradient>
<linearGradient id="paint6_linear_2_639" x1="159" y1="80" x2="-24.7222" y2="118.358" gradientUnits="userSpaceOnUse">
<stop stop-color="#3B2645"/>
<stop offset="1" stop-color="#9DCEFF"/>
</linearGradient>
<linearGradient id="paint7_linear_2_639" x1="159" y1="84" x2="-24.7222" y2="122.358" gradientUnits="userSpaceOnUse">
<stop stop-color="#3B2645"/>
<stop offset="1" stop-color="#9DCEFF"/>
</linearGradient>
</defs>
</svg>
