<svg width="220" height="230" viewBox="0 0 220 230" fill="none" xmlns="http://www.w3.org/2000/svg">
<g filter="url(#filter0_d_3_711)">
<rect x="40" y="30" width="150" height="150" rx="20" fill="white"/>
<rect x="40.5" y="30.5" width="149" height="149" rx="19.5" stroke="#92A3FD"/>
</g>
<path d="M62.268 54.66V63H60.9V54.66H62.268ZM67.4001 56.28C67.9201 56.28 68.3841 56.388 68.7921 56.604C69.2081 56.82 69.5321 57.14 69.7641 57.564C69.9961 57.988 70.1121 58.5 70.1121 59.1V63H68.7561V59.304C68.7561 58.712 68.6081 58.26 68.3121 57.948C68.0161 57.628 67.6121 57.468 67.1001 57.468C66.5881 57.468 66.1801 57.628 65.8761 57.948C65.5801 58.26 65.4321 58.712 65.4321 59.304V63H64.0641V56.388H65.4321V57.144C65.6561 56.872 65.9401 56.66 66.2841 56.508C66.6361 56.356 67.0081 56.28 67.4001 56.28ZM71.401 59.688C71.401 59.008 71.537 58.412 71.809 57.9C72.089 57.38 72.473 56.98 72.961 56.7C73.449 56.42 74.009 56.28 74.641 56.28C75.441 56.28 76.101 56.472 76.621 56.856C77.149 57.232 77.505 57.772 77.689 58.476H76.213C76.093 58.148 75.901 57.892 75.637 57.708C75.373 57.524 75.041 57.432 74.641 57.432C74.081 57.432 73.633 57.632 73.297 58.032C72.969 58.424 72.805 58.976 72.805 59.688C72.805 60.4 72.969 60.956 73.297 61.356C73.633 61.756 74.081 61.956 74.641 61.956C75.433 61.956 75.957 61.608 76.213 60.912H77.689C77.497 61.584 77.137 62.12 76.609 62.52C76.081 62.912 75.425 63.108 74.641 63.108C74.009 63.108 73.449 62.968 72.961 62.688C72.473 62.4 72.089 62 71.809 61.488C71.537 60.968 71.401 60.368 71.401 59.688ZM80.4203 54.12V63H79.0523V54.12H80.4203ZM82.9124 55.512C82.6644 55.512 82.4564 55.428 82.2884 55.26C82.1204 55.092 82.0364 54.884 82.0364 54.636C82.0364 54.388 82.1204 54.18 82.2884 54.012C82.4564 53.844 82.6644 53.76 82.9124 53.76C83.1524 53.76 83.3564 53.844 83.5244 54.012C83.6924 54.18 83.7764 54.388 83.7764 54.636C83.7764 54.884 83.6924 55.092 83.5244 55.26C83.3564 55.428 83.1524 55.512 82.9124 55.512ZM83.5844 56.388V63H82.2164V56.388H83.5844ZM88.7165 56.28C89.2365 56.28 89.7005 56.388 90.1085 56.604C90.5245 56.82 90.8485 57.14 91.0805 57.564C91.3125 57.988 91.4285 58.5 91.4285 59.1V63H90.0725V59.304C90.0725 58.712 89.9245 58.26 89.6285 57.948C89.3325 57.628 88.9285 57.468 88.4165 57.468C87.9045 57.468 87.4965 57.628 87.1925 57.948C86.8965 58.26 86.7485 58.712 86.7485 59.304V63H85.3805V56.388H86.7485V57.144C86.9725 56.872 87.2565 56.66 87.6005 56.508C87.9525 56.356 88.3245 56.28 88.7165 56.28ZM99.2334 59.532C99.2334 59.78 99.2174 60.004 99.1854 60.204H94.1334C94.1734 60.732 94.3694 61.156 94.7214 61.476C95.0734 61.796 95.5054 61.956 96.0174 61.956C96.7534 61.956 97.2734 61.648 97.5774 61.032H99.0534C98.8534 61.64 98.4894 62.14 97.9614 62.532C97.4414 62.916 96.7934 63.108 96.0174 63.108C95.3854 63.108 94.8174 62.968 94.3134 62.688C93.8174 62.4 93.4254 62 93.1374 61.488C92.8574 60.968 92.7174 60.368 92.7174 59.688C92.7174 59.008 92.8534 58.412 93.1254 57.9C93.4054 57.38 93.7934 56.98 94.2894 56.7C94.7934 56.42 95.3694 56.28 96.0174 56.28C96.6414 56.28 97.1974 56.416 97.6854 56.688C98.1734 56.96 98.5534 57.344 98.8254 57.84C99.0974 58.328 99.2334 58.892 99.2334 59.532ZM97.8054 59.1C97.7974 58.596 97.6174 58.192 97.2654 57.888C96.9134 57.584 96.4774 57.432 95.9574 57.432C95.4854 57.432 95.0814 57.584 94.7454 57.888C94.4094 58.184 94.2094 58.588 94.1454 59.1H97.8054ZM100.124 59.664C100.124 59 100.26 58.412 100.532 57.9C100.812 57.388 101.188 56.992 101.66 56.712C102.14 56.424 102.672 56.28 103.256 56.28C103.688 56.28 104.112 56.376 104.528 56.568C104.952 56.752 105.288 57 105.536 57.312V54.12H106.916V63H105.536V62.004C105.312 62.324 105 62.588 104.6 62.796C104.208 63.004 103.756 63.108 103.244 63.108C102.668 63.108 102.14 62.964 101.66 62.676C101.188 62.38 100.812 61.972 100.532 61.452C100.26 60.924 100.124 60.328 100.124 59.664ZM105.536 59.688C105.536 59.232 105.44 58.836 105.248 58.5C105.064 58.164 104.82 57.908 104.516 57.732C104.212 57.556 103.884 57.468 103.532 57.468C103.18 57.468 102.852 57.556 102.548 57.732C102.244 57.9 101.996 58.152 101.804 58.488C101.62 58.816 101.528 59.208 101.528 59.664C101.528 60.12 101.62 60.52 101.804 60.864C101.996 61.208 102.244 61.472 102.548 61.656C102.86 61.832 103.188 61.92 103.532 61.92C103.884 61.92 104.212 61.832 104.516 61.656C104.82 61.48 105.064 61.224 105.248 60.888C105.44 60.544 105.536 60.144 105.536 59.688ZM116.294 58.716C116.742 58.796 117.122 59.032 117.434 59.424C117.746 59.816 117.902 60.26 117.902 60.756C117.902 61.18 117.79 61.564 117.566 61.908C117.35 62.244 117.034 62.512 116.618 62.712C116.202 62.904 115.718 63 115.166 63H111.83V54.66H115.01C115.578 54.66 116.066 54.756 116.474 54.948C116.882 55.14 117.19 55.4 117.398 55.728C117.606 56.048 117.71 56.408 117.71 56.808C117.71 57.288 117.582 57.688 117.326 58.008C117.07 58.328 116.726 58.564 116.294 58.716ZM113.198 58.164H114.89C115.338 58.164 115.686 58.064 115.934 57.864C116.19 57.656 116.318 57.36 116.318 56.976C116.318 56.6 116.19 56.308 115.934 56.1C115.686 55.884 115.338 55.776 114.89 55.776H113.198V58.164ZM115.046 61.884C115.51 61.884 115.874 61.772 116.138 61.548C116.402 61.324 116.534 61.012 116.534 60.612C116.534 60.204 116.394 59.88 116.114 59.64C115.834 59.4 115.462 59.28 114.998 59.28H113.198V61.884H115.046ZM125.448 59.532C125.448 59.78 125.432 60.004 125.4 60.204H120.348C120.388 60.732 120.584 61.156 120.936 61.476C121.288 61.796 121.72 61.956 122.232 61.956C122.968 61.956 123.488 61.648 123.792 61.032H125.268C125.068 61.64 124.704 62.14 124.176 62.532C123.656 62.916 123.008 63.108 122.232 63.108C121.6 63.108 121.032 62.968 120.528 62.688C120.032 62.4 119.64 62 119.352 61.488C119.072 60.968 118.932 60.368 118.932 59.688C118.932 59.008 119.068 58.412 119.34 57.9C119.62 57.38 120.008 56.98 120.504 56.7C121.008 56.42 121.584 56.28 122.232 56.28C122.856 56.28 123.412 56.416 123.9 56.688C124.388 56.96 124.768 57.344 125.04 57.84C125.312 58.328 125.448 58.892 125.448 59.532ZM124.02 59.1C124.012 58.596 123.832 58.192 123.48 57.888C123.128 57.584 122.692 57.432 122.172 57.432C121.7 57.432 121.296 57.584 120.96 57.888C120.624 58.184 120.424 58.588 120.36 59.1H124.02ZM130.131 56.28C130.651 56.28 131.115 56.388 131.523 56.604C131.939 56.82 132.263 57.14 132.495 57.564C132.727 57.988 132.843 58.5 132.843 59.1V63H131.487V59.304C131.487 58.712 131.339 58.26 131.043 57.948C130.747 57.628 130.343 57.468 129.831 57.468C129.319 57.468 128.911 57.628 128.607 57.948C128.311 58.26 128.163 58.712 128.163 59.304V63H126.795V56.388H128.163V57.144C128.387 56.872 128.671 56.66 129.015 56.508C129.367 56.356 129.739 56.28 130.131 56.28ZM134.132 59.688C134.132 59.008 134.268 58.412 134.54 57.9C134.82 57.38 135.204 56.98 135.692 56.7C136.18 56.42 136.74 56.28 137.372 56.28C138.172 56.28 138.832 56.472 139.352 56.856C139.88 57.232 140.236 57.772 140.42 58.476H138.944C138.824 58.148 138.632 57.892 138.368 57.708C138.104 57.524 137.772 57.432 137.372 57.432C136.812 57.432 136.364 57.632 136.028 58.032C135.7 58.424 135.536 58.976 135.536 59.688C135.536 60.4 135.7 60.956 136.028 61.356C136.364 61.756 136.812 61.956 137.372 61.956C138.164 61.956 138.688 61.608 138.944 60.912H140.42C140.228 61.584 139.868 62.12 139.34 62.52C138.812 62.912 138.156 63.108 137.372 63.108C136.74 63.108 136.18 62.968 135.692 62.688C135.204 62.4 134.82 62 134.54 61.488C134.268 60.968 134.132 60.368 134.132 59.688ZM145.203 56.28C145.707 56.28 146.155 56.388 146.547 56.604C146.947 56.82 147.259 57.14 147.483 57.564C147.715 57.988 147.831 58.5 147.831 59.1V63H146.475V59.304C146.475 58.712 146.327 58.26 146.031 57.948C145.735 57.628 145.331 57.468 144.819 57.468C144.307 57.468 143.899 57.628 143.595 57.948C143.299 58.26 143.151 58.712 143.151 59.304V63H141.783V54.12H143.151V57.156C143.383 56.876 143.675 56.66 144.027 56.508C144.387 56.356 144.779 56.28 145.203 56.28ZM66.732 75.144C66.732 75.568 66.632 75.968 66.432 76.344C66.232 76.72 65.912 77.028 65.472 77.268C65.032 77.5 64.468 77.616 63.78 77.616H62.268V81H60.9V72.66H63.78C64.42 72.66 64.96 72.772 65.4 72.996C65.848 73.212 66.18 73.508 66.396 73.884C66.62 74.26 66.732 74.68 66.732 75.144ZM63.78 76.5C64.3 76.5 64.688 76.384 64.944 76.152C65.2 75.912 65.328 75.576 65.328 75.144C65.328 74.232 64.812 73.776 63.78 73.776H62.268V76.5H63.78ZM69.4047 75.348C69.6047 75.012 69.8687 74.752 70.1967 74.568C70.5327 74.376 70.9287 74.28 71.3847 74.28V75.696H71.0367C70.5007 75.696 70.0927 75.832 69.8127 76.104C69.5407 76.376 69.4047 76.848 69.4047 77.52V81H68.0367V74.388H69.4047V75.348ZM78.7022 77.532C78.7022 77.78 78.6862 78.004 78.6542 78.204H73.6022C73.6422 78.732 73.8382 79.156 74.1902 79.476C74.5422 79.796 74.9742 79.956 75.4862 79.956C76.2222 79.956 76.7422 79.648 77.0462 79.032H78.5222C78.3222 79.64 77.9582 80.14 77.4302 80.532C76.9102 80.916 76.2622 81.108 75.4862 81.108C74.8542 81.108 74.2862 80.968 73.7822 80.688C73.2862 80.4 72.8942 80 72.6062 79.488C72.3262 78.968 72.1862 78.368 72.1862 77.688C72.1862 77.008 72.3222 76.412 72.5942 75.9C72.8742 75.38 73.2622 74.98 73.7582 74.7C74.2622 74.42 74.8382 74.28 75.4862 74.28C76.1102 74.28 76.6662 74.416 77.1542 74.688C77.6422 74.96 78.0222 75.344 78.2942 75.84C78.5662 76.328 78.7022 76.892 78.7022 77.532ZM77.2742 77.1C77.2662 76.596 77.0862 76.192 76.7342 75.888C76.3822 75.584 75.9462 75.432 75.4262 75.432C74.9542 75.432 74.5502 75.584 74.2142 75.888C73.8782 76.184 73.6782 76.588 73.6142 77.1H77.2742ZM82.4484 81.108C81.9284 81.108 81.4604 81.016 81.0444 80.832C80.6364 80.64 80.3124 80.384 80.0724 80.064C79.8324 79.736 79.7044 79.372 79.6884 78.972H81.1044C81.1284 79.252 81.2604 79.488 81.5004 79.68C81.7484 79.864 82.0564 79.956 82.4244 79.956C82.8084 79.956 83.1044 79.884 83.3124 79.74C83.5284 79.588 83.6364 79.396 83.6364 79.164C83.6364 78.916 83.5164 78.732 83.2764 78.612C83.0444 78.492 82.6724 78.36 82.1604 78.216C81.6644 78.08 81.2604 77.948 80.9484 77.82C80.6364 77.692 80.3644 77.496 80.1324 77.232C79.9084 76.968 79.7964 76.62 79.7964 76.188C79.7964 75.836 79.9004 75.516 80.1084 75.228C80.3164 74.932 80.6124 74.7 80.9964 74.532C81.3884 74.364 81.8364 74.28 82.3404 74.28C83.0924 74.28 83.6964 74.472 84.1524 74.856C84.6164 75.232 84.8644 75.748 84.8964 76.404H83.5284C83.5044 76.108 83.3844 75.872 83.1684 75.696C82.9524 75.52 82.6604 75.432 82.2924 75.432C81.9324 75.432 81.6564 75.5 81.4644 75.636C81.2724 75.772 81.1764 75.952 81.1764 76.176C81.1764 76.352 81.2404 76.5 81.3684 76.62C81.4964 76.74 81.6524 76.836 81.8364 76.908C82.0204 76.972 82.2924 77.056 82.6524 77.16C83.1324 77.288 83.5244 77.42 83.8284 77.556C84.1404 77.684 84.4084 77.876 84.6324 78.132C84.8564 78.388 84.9724 78.728 84.9804 79.152C84.9804 79.528 84.8764 79.864 84.6684 80.16C84.4604 80.456 84.1644 80.688 83.7804 80.856C83.4044 81.024 82.9604 81.108 82.4484 81.108ZM88.8586 81.108C88.3386 81.108 87.8706 81.016 87.4546 80.832C87.0466 80.64 86.7226 80.384 86.4826 80.064C86.2426 79.736 86.1146 79.372 86.0986 78.972H87.5146C87.5386 79.252 87.6706 79.488 87.9106 79.68C88.1586 79.864 88.4666 79.956 88.8346 79.956C89.2186 79.956 89.5146 79.884 89.7226 79.74C89.9386 79.588 90.0466 79.396 90.0466 79.164C90.0466 78.916 89.9266 78.732 89.6866 78.612C89.4546 78.492 89.0826 78.36 88.5706 78.216C88.0746 78.08 87.6706 77.948 87.3586 77.82C87.0466 77.692 86.7746 77.496 86.5426 77.232C86.3186 76.968 86.2066 76.62 86.2066 76.188C86.2066 75.836 86.3106 75.516 86.5186 75.228C86.7266 74.932 87.0226 74.7 87.4066 74.532C87.7986 74.364 88.2466 74.28 88.7506 74.28C89.5026 74.28 90.1066 74.472 90.5626 74.856C91.0266 75.232 91.2746 75.748 91.3066 76.404H89.9386C89.9146 76.108 89.7946 75.872 89.5786 75.696C89.3626 75.52 89.0706 75.432 88.7026 75.432C88.3426 75.432 88.0666 75.5 87.8746 75.636C87.6826 75.772 87.5866 75.952 87.5866 76.176C87.5866 76.352 87.6506 76.5 87.7786 76.62C87.9066 76.74 88.0626 76.836 88.2466 76.908C88.4306 76.972 88.7026 77.056 89.0626 77.16C89.5426 77.288 89.9346 77.42 90.2386 77.556C90.5506 77.684 90.8186 77.876 91.0426 78.132C91.2666 78.388 91.3826 78.728 91.3906 79.152C91.3906 79.528 91.2866 79.864 91.0786 80.16C90.8706 80.456 90.5746 80.688 90.1906 80.856C89.8146 81.024 89.3706 81.108 88.8586 81.108Z" fill="#1D1617"/>
<mask id="mask0_3_711" style="mask-type:alpha" maskUnits="userSpaceOnUse" x="60" y="99" width="110" height="78">
<rect x="60" y="99" width="110" height="78" rx="12" fill="#C4C4C4"/>
</mask>
<g mask="url(#mask0_3_711)">
<path opacity="0.3" d="M40 152C45.2864 137.027 58.2706 127.84 78.8636 124.5C102.131 120.727 112.938 149.574 134.727 142.5C150.741 137.301 146.965 124.103 159.318 115C169.689 107.357 176.751 103.675 190 99" stroke="url(#paint0_linear_3_711)"/>
<path opacity="0.3" d="M40 164C45.2864 149.027 58.2706 139.84 78.8636 136.5C102.131 132.727 112.938 161.574 134.727 154.5C150.741 149.301 146.965 136.103 159.318 127C169.689 119.357 176.751 115.675 190 111" stroke="url(#paint1_linear_3_711)"/>
<path opacity="0.3" d="M40 160C45.2864 145.027 58.2706 135.84 78.8636 132.5C102.131 128.727 112.938 157.574 134.727 150.5C150.741 145.301 146.965 132.103 159.318 123C169.689 115.357 176.751 111.675 190 107" stroke="url(#paint2_linear_3_711)"/>
<path opacity="0.3" d="M40 156C45.2864 141.027 58.2706 131.84 78.8636 128.5C102.131 124.727 112.938 153.574 134.727 146.5C150.741 141.301 146.965 128.103 159.318 119C169.689 111.357 176.751 107.675 190 103" stroke="url(#paint3_linear_3_711)"/>
<path opacity="0.8" d="M56 118C61.0397 132.973 73.418 142.16 93.05 145.5C115.231 149.273 125.534 120.426 146.307 127.5C161.573 132.699 157.974 145.897 169.75 155C179.637 162.643 186.369 166.325 199 171" stroke="url(#paint4_linear_3_711)" stroke-width="1.2"/>
<path opacity="0.8" d="M56 106C61.0397 120.973 73.418 130.16 93.05 133.5C115.231 137.273 125.534 108.426 146.307 115.5C161.573 120.699 157.974 133.897 169.75 143C179.637 150.643 186.369 154.325 199 159" stroke="url(#paint5_linear_3_711)" stroke-width="1.2"/>
<path opacity="0.8" d="M56 110C61.0397 124.973 73.418 134.16 93.05 137.5C115.231 141.273 125.534 112.426 146.307 119.5C161.573 124.699 157.974 137.897 169.75 147C179.637 154.643 186.369 158.325 199 163" stroke="url(#paint6_linear_3_711)" stroke-width="1.2"/>
<path opacity="0.8" d="M56 114C61.0397 128.973 73.418 138.16 93.05 141.5C115.231 145.273 125.534 116.426 146.307 123.5C161.573 128.699 157.974 141.897 169.75 151C179.637 158.643 186.369 162.325 199 167" stroke="url(#paint7_linear_3_711)" stroke-width="1.2"/>
</g>
<defs>
<filter id="filter0_d_3_711" x="0" y="0" width="230" height="230" filterUnits="userSpaceOnUse" color-interpolation-filters="sRGB">
<feFlood flood-opacity="0" result="BackgroundImageFix"/>
<feColorMatrix in="SourceAlpha" type="matrix" values="0 0 0 0 0 0 0 0 0 0 0 0 0 0 0 0 0 0 127 0" result="hardAlpha"/>
<feOffset dy="10"/>
<feGaussianBlur stdDeviation="20"/>
<feColorMatrix type="matrix" values="0 0 0 0 0.113725 0 0 0 0 0.0862745 0 0 0 0 0.0901961 0 0 0 0.07 0"/>
<feBlend mode="normal" in2="BackgroundImageFix" result="effect1_dropShadow_3_711"/>
<feBlend mode="normal" in="SourceGraphic" in2="effect1_dropShadow_3_711" result="shape"/>
</filter>
<linearGradient id="paint0_linear_3_711" x1="190" y1="152" x2="-1.91157" y2="109.971" gradientUnits="userSpaceOnUse">
<stop stop-color="#DF845C"/>
<stop offset="1" stop-color="#EEA4CE"/>
</linearGradient>
<linearGradient id="paint1_linear_3_711" x1="190" y1="164" x2="-1.91157" y2="121.971" gradientUnits="userSpaceOnUse">
<stop stop-color="#DF845C"/>
<stop offset="1" stop-color="#EEA4CE"/>
</linearGradient>
<linearGradient id="paint2_linear_3_711" x1="190" y1="160" x2="-1.91157" y2="117.971" gradientUnits="userSpaceOnUse">
<stop stop-color="#DF845C"/>
<stop offset="1" stop-color="#EEA4CE"/>
</linearGradient>
<linearGradient id="paint3_linear_3_711" x1="190" y1="156" x2="-1.91157" y2="113.971" gradientUnits="userSpaceOnUse">
<stop stop-color="#DF845C"/>
<stop offset="1" stop-color="#EEA4CE"/>
</linearGradient>
<linearGradient id="paint4_linear_3_711" x1="199" y1="118" x2="15.2778" y2="156.358" gradientUnits="userSpaceOnUse">
<stop stop-color="#3B2645"/>
<stop offset="1" stop-color="#9DCEFF"/>
</linearGradient>
<linearGradient id="paint5_linear_3_711" x1="199" y1="106" x2="15.2778" y2="144.358" gradientUnits="userSpaceOnUse">
<stop stop-color="#3B2645"/>
<stop offset="1" stop-color="#9DCEFF"/>
</linearGradient>
<linearGradient id="paint6_linear_3_711" x1="199" y1="110" x2="15.2778" y2="148.358" gradientUnits="userSpaceOnUse">
<stop stop-color="#3B2645"/>
<stop offset="1" stop-color="#9DCEFF"/>
</linearGradient>
<linearGradient id="paint7_linear_3_711" x1="199" y1="114" x2="15.2778" y2="152.358" gradientUnits="userSpaceOnUse">
<stop stop-color="#3B2645"/>
<stop offset="1" stop-color="#9DCEFF"/>
</linearGradient>
</defs>
</svg>
