<svg width="14" height="18" viewBox="0 0 14 18" fill="none" xmlns="http://www.w3.org/2000/svg">
<path d="M7.00004 8.99999C7.45837 8.99999 7.85087 8.83666 8.17754 8.50999C8.50365 8.18388 8.66671 7.79166 8.66671 7.33332C8.66671 6.87499 8.50365 6.48249 8.17754 6.15582C7.85087 5.82971 7.45837 5.66666 7.00004 5.66666C6.54171 5.66666 6.14949 5.82971 5.82337 6.15582C5.49671 6.48249 5.33337 6.87499 5.33337 7.33332C5.33337 7.79166 5.49671 8.18388 5.82337 8.50999C6.14949 8.83666 6.54171 8.99999 7.00004 8.99999ZM7.00004 15.125C8.69448 13.5694 9.95143 12.1561 10.7709 10.885C11.5903 9.61443 12 8.4861 12 7.49999C12 5.9861 11.5173 4.74638 10.5517 3.78082C9.58671 2.81582 8.40282 2.33332 7.00004 2.33332C5.59726 2.33332 4.4131 2.81582 3.44754 3.78082C2.48254 4.74638 2.00004 5.9861 2.00004 7.49999C2.00004 8.4861 2.40976 9.61443 3.22921 10.885C4.04865 12.1561 5.3056 13.5694 7.00004 15.125ZM7.00004 17.3333C4.76393 15.4305 3.09393 13.663 1.99004 12.0308C0.885596 10.3992 0.333374 8.88888 0.333374 7.49999C0.333374 5.41666 1.00365 3.75693 2.34421 2.52082C3.68421 1.28471 5.23615 0.666656 7.00004 0.666656C8.76393 0.666656 10.3159 1.28471 11.6559 2.52082C12.9964 3.75693 13.6667 5.41666 13.6667 7.49999C13.6667 8.88888 13.1148 10.3992 12.0109 12.0308C10.9064 13.663 9.23615 15.4305 7.00004 17.3333Z" fill="#455A64"/>
</svg>
