<svg width="24" height="24" viewBox="0 0 24 24" fill="none" xmlns="http://www.w3.org/2000/svg">
<path opacity="0.6" d="M15 2H14C11.172 2 9.757 2 8.879 2.879C8 3.757 8 5.172 8 8V16C8 18.828 8 20.243 8.879 21.121C9.757 22 11.172 22 14 22H15C17.828 22 19.243 22 20.121 21.121C21 20.243 21 18.828 21 16V8C21 5.172 21 3.757 20.121 2.879C19.243 2 17.828 2 15 2Z" fill="#699BF7"/>
<path opacity="0.4" d="M8 8C8 6.462 8 5.343 8.141 4.5H8C5.643 4.5 4.464 4.5 3.732 5.232C3 5.964 3 7.143 3 9.5V14.5C3 16.857 3 18.035 3.732 18.768C4.464 19.5 5.643 19.5 8 19.5H8.141C8 18.657 8 17.538 8 16V8Z" fill="#699BF7"/>
<path fill-rule="evenodd" clip-rule="evenodd" d="M4.46995 11.47C4.3295 11.6106 4.25061 11.8013 4.25061 12C4.25061 12.1988 4.3295 12.3894 4.46995 12.53L6.46995 14.53C6.61213 14.6625 6.80017 14.7346 6.99447 14.7312C7.18877 14.7277 7.37416 14.649 7.51157 14.5116C7.64899 14.3742 7.7277 14.1888 7.73113 13.9945C7.73455 13.8002 7.66243 13.6122 7.52995 13.47L6.80995 12.75H14C14.1989 12.75 14.3896 12.671 14.5303 12.5303C14.6709 12.3897 14.75 12.1989 14.75 12C14.75 11.8011 14.6709 11.6103 14.5303 11.4697C14.3896 11.329 14.1989 11.25 14 11.25H6.80995L7.52995 10.53C7.60364 10.4613 7.66274 10.3785 7.70373 10.2865C7.74472 10.1945 7.76677 10.0952 7.76854 9.99452C7.77032 9.89382 7.75179 9.79379 7.71407 9.7004C7.67635 9.60702 7.62021 9.52218 7.54899 9.45096C7.47777 9.37974 7.39294 9.3236 7.29955 9.28588C7.20616 9.24816 7.10613 9.22963 7.00543 9.23141C6.90472 9.23319 6.80541 9.25523 6.71341 9.29622C6.62141 9.33721 6.53861 9.39631 6.46995 9.47L4.46995 11.47Z" fill="#699BF7"/>
</svg>
