<svg width="21" height="20" viewBox="0 0 21 20" fill="none" xmlns="http://www.w3.org/2000/svg">
<path d="M18.875 6.5H14.375C14.1098 6.5 13.8554 6.39464 13.6679 6.20711C13.4804 6.01957 13.375 5.76522 13.375 5.5C13.375 5.23478 13.4804 4.98043 13.6679 4.79289C13.8554 4.60536 14.1098 4.5 14.375 4.5H17.875V1C17.875 0.734784 17.9804 0.48043 18.1679 0.292893C18.3554 0.105357 18.6098 0 18.875 0C19.1402 0 19.3946 0.105357 19.5821 0.292893C19.7696 0.48043 19.875 0.734784 19.875 1V5.5C19.875 5.76522 19.7696 6.01957 19.5821 6.20711C19.3946 6.39464 19.1402 6.5 18.875 6.5Z" fill="white"/>
<path d="M11 20C9.24432 20.0015 7.51918 19.5408 5.99803 18.6641C4.47689 17.7875 3.21335 16.5258 2.33448 15.0059C1.4556 13.486 0.992363 11.7615 0.991335 10.0059C0.990307 8.25017 1.45153 6.52516 2.32862 5.00426C3.20572 3.48336 4.46777 2.22018 5.98789 1.34174C7.50801 0.463288 9.23261 0.000533825 10.9883 4.61582e-07C12.744 -0.000532902 14.4689 0.461173 15.9895 1.3387C17.5102 2.21622 18.773 3.47863 19.651 4.999C19.7752 5.22787 19.8052 5.49616 19.7347 5.74683C19.6641 5.99749 19.4986 6.21075 19.2733 6.34126C19.0479 6.47177 18.7806 6.50923 18.528 6.44569C18.2755 6.38215 18.0577 6.22261 17.921 6.001C16.9483 4.32457 15.3995 3.05884 13.5629 2.43958C11.7263 1.82032 9.72726 1.88974 7.93806 2.63492C6.14887 3.38009 4.69154 4.75021 3.83751 6.49008C2.98348 8.22995 2.79099 10.2209 3.29588 12.0922C3.80078 13.9634 4.96864 15.5874 6.58194 16.6615C8.19523 17.7356 10.144 18.1867 12.0652 17.9308C13.9864 17.6748 15.749 16.7293 17.0248 15.2702C18.3006 13.8112 19.0026 11.9382 19 10C19 9.73478 19.1054 9.48043 19.2929 9.29289C19.4804 9.10535 19.7348 9 20 9C20.2652 9 20.5196 9.10535 20.7071 9.29289C20.8947 9.48043 21 9.73478 21 10C20.9971 12.6513 19.9426 15.1931 18.0679 17.0678C16.1931 18.9426 13.6513 19.9971 11 20Z" fill="white"/>
</svg>
